<svg width="24" height="24" viewBox="0 0 24 24" fill="none" xmlns="http://www.w3.org/2000/svg">
<path fill-rule="evenodd" clip-rule="evenodd" d="M12.7501 4.40002C12.7501 3.98581 12.4143 3.65002 12.0001 3.65002C11.5859 3.65002 11.2501 3.98581 11.2501 4.40002V11.25H4.40015C3.98593 11.25 3.65015 11.5858 3.65015 12C3.65015 12.4142 3.98593 12.75 4.40015 12.75H11.2501V19.6C11.2501 20.0142 11.5859 20.35 12.0001 20.35C12.4143 20.35 12.7501 20.0142 12.7501 19.6V12.75H19.6001C20.0144 12.75 20.3501 12.4142 20.3501 12C20.3501 11.5858 20.0144 11.25 19.6001 11.25H12.7501V4.40002Z" fill="white"/>
</svg>
